<svg xmlns="http://www.w3.org/2000/svg" viewBox="0 0 16 16">
    <path fill="white" d="m4.984 7.554.214.253c.223.264.47.556.673.848.284.411.537.896.621 1.49.1.958-1.312 1.158-1.484.211-.04-.282-.163-.547-.37-.847a9 9 0 0 0-.542-.68l-.268-.32s-.005-.46.348-.746c.353-.287.808-.209.808-.209M5.965.351A6 6 0 0 1 8 0c3.137 0 5.5 2.31 5.5 5.25 0 1.516-.701 2.5-1.328 3.259q-.142.172-.268.319c-.207.245-.383.453-.541.681-.208.3-.33.565-.37.847-.141.99-1.626.778-1.485-.212.084-.593.337-1.078.621-1.489.203-.292.45-.584.673-.848l.213-.253c.561-.679.985-1.32.985-2.304 0-2.06-1.637-3.75-4-3.75-.516 0-.997.08-1.434.228 0 0-.289-.422-.391-.68a7 7 0 0 1-.21-.697M6 15.25a.75.75 0 0 1 .75-.75h2.5c1 0 1 1.5 0 1.5h-2.5a.75.75 0 0 1-.75-.75M5.75 12c-1 0-1 1.5 0 1.5h4.5c1 0 1-1.5 0-1.5z M4.8 1.14a.213.213 0 0 1 .4 0l.203.555a3.2 3.2 0 0 0 1.901 1.901l.556.204a.213.213 0 0 1 0 .4l-.556.203a3.2 3.2 0 0 0-1.9 1.901L5.2 6.86a.213.213 0 0 1-.4 0l-.204-.556a3.2 3.2 0 0 0-1.9-1.9L2.138 4.2a.213.213 0 0 1 0-.4l.556-.204a3.2 3.2 0 0 0 1.901-1.9zM2.666 5.557a.089.089 0 0 1 .167 0l.085.232a1.33 1.33 0 0 0 .792.792l.232.084a.089.089 0 0 1 0 .167l-.232.085a1.33 1.33 0 0 0-.792.792l-.085.232a.089.089 0 0 1-.167 0l-.084-.232a1.33 1.33 0 0 0-.792-.792l-.232-.085a.089.089 0 0 1 0-.167l.232-.084a1.33 1.33 0 0 0 .792-.792zM1.4.07a.107.107 0 0 1 .2 0l.1.278a1.6 1.6 0 0 0 .95.95l.279.102a.107.107 0 0 1 0 .2l-.278.101a1.6 1.6 0 0 0-.95.95L1.6 2.93a.107.107 0 0 1-.2 0l-.102-.278a1.6 1.6 0 0 0-.95-.95L.07 1.6a.107.107 0 0 1 0-.2l.278-.102a1.6 1.6 0 0 0 .95-.95Z"/>
</svg>
