<svg xmlns="http://www.w3.org/2000/svg" viewBox="0 0 16 16">
    <path fill="white" d="M6.75 14.5a.75.75 0 1 0 0 1.5h1.588a5.5 5.5 0 0 1-1.447-1.5ZM5.75 12c-1 0-1 1.5 0 1.5h.627a5.5 5.5 0 0 1-.354-1.5ZM11.5 7a4.5 4.5 0 1 0 0 9 4.5 4.5 0 0 0 0-9m-.002 1.5c.2 0 .402.119.477.36l.476 1.533h1.545c.242 0 .414.16.477.359a.56.56 0 0 1-.02.387q-.009.018-.02.035a.5.5 0 0 1-.14.162h-.002l-1.248.947.477 1.531a.525.525 0 0 1-.424.684l-.04.002h-.038a.5.5 0 0 1-.268-.102l-1.25-.947-1.25.947a.5.5 0 0 1-.268.102.5.5 0 0 1-.427-.21.53.53 0 0 1-.075-.476l.477-1.53-1.25-.948c-.392-.297-.19-.943.295-.943h1.545l.476-1.534a.49.49 0 0 1 .475-.359M3.635 8.271q.097.124.193.239c.095.115.184.218.268.318q.288.328.543.682c.207.3.329.563.369.845a.75.75 0 0 0 1.023.561 5.5 5.5 0 0 1 .319-1.348 3.9 3.9 0 0 0-.479-.914c-.203-.292-.45-.583-.674-.847l-.213-.252s-.377-.078-.792.132c-.414.21-.557.584-.557.584 M4.8 1.14a.213.213 0 0 1 .4 0l.203.555a3.2 3.2 0 0 0 1.901 1.901l.556.204a.213.213 0 0 1 0 .4l-.556.203a3.2 3.2 0 0 0-1.9 1.901L5.2 6.86a.213.213 0 0 1-.4 0l-.204-.556a3.2 3.2 0 0 0-1.9-1.9L2.138 4.2a.213.213 0 0 1 0-.4l.556-.204a3.2 3.2 0 0 0 1.901-1.9zM2.666 5.557a.089.089 0 0 1 .167 0l.085.232a1.33 1.33 0 0 0 .792.792l.232.084a.089.089 0 0 1 0 .167l-.232.085a1.33 1.33 0 0 0-.792.792l-.085.232a.089.089 0 0 1-.167 0l-.084-.232a1.33 1.33 0 0 0-.792-.792l-.232-.085a.089.089 0 0 1 0-.167l.232-.084a1.33 1.33 0 0 0 .792-.792zM1.4.07a.107.107 0 0 1 .2 0l.1.278a1.6 1.6 0 0 0 .95.95l.279.102a.107.107 0 0 1 0 .2l-.278.101a1.6 1.6 0 0 0-.95.95L1.6 2.93a.107.107 0 0 1-.2 0l-.102-.278a1.6 1.6 0 0 0-.95-.95L.07 1.6a.107.107 0 0 1 0-.2l.278-.102a1.6 1.6 0 0 0 .95-.95Z M10.607.596A5.8 5.8 0 0 0 8 0a6 6 0 0 0-1.768.262 2 2 0 0 0-.025.33 2.2 2.2 0 0 0 .324 1.148c.447-.155.94-.24 1.469-.24.787 0 1.494.187 2.086.514a2.2 2.2 0 0 0 .521-1.418m0 0a2.2 2.2 0 0 1-.521 1.418A3.66 3.66 0 0 1 12 5.25q-.002.418-.096.766a5.5 5.5 0 0 1 1.467.312c.081-.327.129-.685.129-1.078 0-2.044-1.142-3.784-2.893-4.654"/>
</svg>
