<svg xmlns="http://www.w3.org/2000/svg" viewBox="0 0 16 16">
    <path fill="white" d="M 11.5,7 C 9.015,7 7,9.01498 7,11.5 7,13.985 9.015,16 11.5,16 13.985,16 16,13.985 16,11.5 16,9.01498 13.985,7 11.5,7 Z m 2.793,4.33602 -1.25,0.947 0.477,1.532 c 0.15,0.481 -0.378,0.88 -0.77,0.583 L 11.5,13.451 10.25,14.398 C 9.858,14.695 9.33,14.295 9.48,13.815 L 9.957,12.283 8.707,11.336 C 8.315,11.039 8.516,10.392 9.001,10.392 h 1.545 l 0.477,-1.53202 c 0.15,-0.481 0.802,-0.481 0.952,0 l 0.477,1.53202 h 1.545 c 0.485,0 0.687,0.647 0.294,0.944 z M 8,0 C 4.863,0 2.5,2.31 2.5,5.25 c 0,1.516 0.701125,2.5007656 1.328125,3.2597656 0.095,0.115 0.1835781,0.2183594 0.2675781,0.3183594 a 8.695,8.695 0 0 1 0.5429688,0.6816406 c 0.207,0.3 0.3291406,0.5637034 0.3691406,0.8457034 A 0.75,0.75 0 0 0 6.03125,10.916016 5.5,5.5 0 0 1 6.3496094,9.5683594 C 6.2289634,9.2256916 6.0571713,8.9235852 5.8710938,8.6542969 5.6680938,8.3622969 5.4202656,8.0706406 5.1972656,7.8066406 L 4.984375,7.5546875 C 4.424375,6.8756875 4,6.234 4,5.25 4,3.19 5.637,1.5 8,1.5 c 2.363,0 4,1.69 4,3.75 0,0.2797527 -0.03376,0.5325647 -0.0957,0.765625 a 5.5,5.5 0 0 1 1.466797,0.3125 C 13.451998,6.0009432 13.5,5.6434981 13.5,5.25 13.5,2.31 11.137,0 8,0 Z M 6.75,14.5 A 0.75,0.75 0 0 0 6,15.25 0.75,0.75 0 0 0 6.75,16 H 8.3378906 A 5.5,5.5 0 0 1 6.890625,14.5 Z m -1,-2.5 a 0.75,0.75 0 0 0 0,1.5 H 6.3769531 A 5.5,5.5 0 0 1 6.0234375,12 Z"/>
</svg>
